<svg width="153" height="31" viewBox="0 0 153 31" fill="none" xmlns="http://www.w3.org/2000/svg">
<path d="M3.18795 29.9462H0.944336V25.0291H3.13599C3.99092 25.0291 4.51522 25.544 4.51522 26.2808C4.51522 26.8996 4.10428 27.3152 3.65084 27.4097C4.17513 27.49 4.60969 28.0285 4.60969 28.6189C4.60969 29.4077 4.08539 29.9462 3.18795 29.9462ZM3.03207 27.1594C3.58471 27.1594 3.88228 26.8193 3.88228 26.3706C3.88228 25.9266 3.58943 25.5723 3.03207 25.5723H1.55838V27.1594H3.03207ZM3.06986 29.403C3.63667 29.403 3.97675 29.0771 3.97675 28.5528C3.97675 28.104 3.66501 27.7025 3.06986 27.7025H1.55838V29.3982H3.06986V29.403ZM7.40121 29.9462H6.78717V27.8679L4.85058 25.0291H5.56381L7.08946 27.3152L8.61512 25.0291H9.32835L7.40121 27.8679V29.9462ZM14.2171 30.0359C12.8 30.0359 11.6853 29.0015 11.6853 27.49C11.6853 25.9785 12.8 24.9441 14.2171 24.9441C15.0862 24.9441 15.6908 25.355 16.0828 25.9171L15.5727 26.2052C15.294 25.7849 14.7744 25.492 14.2171 25.492C13.1401 25.492 12.323 26.3091 12.323 27.49C12.323 28.6567 13.1401 29.488 14.2171 29.488C14.7791 29.488 15.294 29.1857 15.5727 28.7748L16.0875 29.0534C15.6766 29.625 15.0862 30.0359 14.2171 30.0359ZM19.1105 30.0359C17.6557 30.0359 16.6685 28.9448 16.6685 27.49C16.6685 26.0352 17.6557 24.9441 19.1105 24.9441C20.5653 24.9441 21.5572 26.0352 21.5572 27.49C21.5572 28.9448 20.5653 30.0359 19.1105 30.0359ZM19.1105 29.4927C20.211 29.4927 20.9243 28.6378 20.9243 27.4947C20.9243 26.3422 20.211 25.4967 19.1105 25.4967C18.0052 25.4967 17.3014 26.3469 17.3014 27.4947C17.3062 28.6331 18.0052 29.4927 19.1105 29.4927ZM24.84 30.0454C23.4371 30.0454 22.3082 29.0204 22.3082 27.4947C22.3082 25.9596 23.4371 24.9488 24.84 24.9488C25.7185 24.9488 26.3231 25.3314 26.7482 25.8652L26.2617 26.1769C25.95 25.7801 25.4304 25.4967 24.84 25.4967C23.763 25.4967 22.9459 26.3139 22.9459 27.4947C22.9459 28.6614 23.763 29.4927 24.84 29.4927C25.4304 29.4927 25.9169 29.214 26.1672 28.9637V27.9671H24.4715V27.4191H26.7718V29.1904C26.3137 29.7053 25.6429 30.0454 24.84 30.0454ZM31.8353 29.9462H31.2449L28.3778 26.021V29.9462H27.7637V25.0291H28.3919L31.226 28.8739V25.0291H31.84V29.9462H31.8353ZM33.6018 29.9462H32.9878V25.0291H33.6018V29.9462ZM36.5823 29.9462H35.9683V25.5723H34.4143V25.0244H38.1457V25.5723H36.5823V29.9462ZM39.5722 29.9462H38.9582V25.0291H39.5722V29.9462ZM42.9589 29.9462H42.1984L40.2146 25.0291H40.9136L42.5716 29.2754L44.2295 25.0291H44.9285L42.9589 29.9462ZM48.8017 29.9462H45.5804V25.0291H48.8017V25.577H46.1897V27.1641H48.7498V27.712H46.1897V29.4077H48.8017V29.9462ZM55.7876 29.9462H55.1736V27.6884H52.297V29.9462H51.683V25.0291H52.297V27.1452H55.1736V25.0291H55.7876V29.9462ZM60.1567 29.9462H56.9354V25.0291H60.1567V25.577H57.5447V27.1641H60.1048V27.712H57.5447V29.4077H60.1567V29.9462ZM65.3477 29.9462H64.6487L64.2141 28.8456H61.7674L61.3329 29.9462H60.6338L62.6176 25.0291H63.3781L65.3477 29.9462ZM64.0346 28.3119L62.986 25.6573L61.9469 28.3119H64.0346ZM68.8053 29.9462H65.9051V25.0291H66.5191V29.403H68.8053V29.9462ZM70.7229 29.9462H70.1089V25.5723H68.5549V25.0244H72.2864V25.5723H70.7229V29.9462ZM77.1987 29.9462H76.5847V27.6884H73.7081V29.9462H73.0941V25.0291H73.7081V27.1452H76.5847V25.0291H77.1987V29.9462ZM80.6799 30.0359C79.2628 30.0359 78.1481 29.0015 78.1481 27.49C78.1481 25.9785 79.2628 24.9441 80.6799 24.9441C81.549 24.9441 82.1536 25.355 82.5456 25.9171L82.0355 26.2052C81.7568 25.7849 81.2372 25.492 80.6799 25.492C79.6029 25.492 78.7858 26.3091 78.7858 27.49C78.7858 28.6567 79.6029 29.488 80.6799 29.488C81.2419 29.488 81.7568 29.1857 82.0355 28.7748L82.5503 29.0534C82.1394 29.625 81.549 30.0359 80.6799 30.0359ZM87.524 29.9462H86.825L86.3904 28.8456H83.9437L83.5092 29.9462H82.8101L84.7939 25.0291H85.5544L87.524 29.9462ZM86.2109 28.3119L85.1623 25.6573L84.1232 28.3119H86.2109ZM91.7373 29.9462H91.0146L89.7677 27.9907H88.7805V29.9462H88.1664V25.0291H90.1408C91.043 25.0291 91.6901 25.6054 91.6901 26.5123C91.6901 27.3955 91.076 27.882 90.4053 27.9434L91.7373 29.9462ZM90.0699 27.4569C90.6509 27.4569 91.0571 27.0649 91.0571 26.5123C91.0571 25.9502 90.6509 25.577 90.0699 25.577H88.7805V27.4569H90.0699ZM95.8844 29.9462H92.6584V25.0291H95.8797V25.577H93.2724V27.1641H95.8325V27.712H93.2724V29.4077H95.8844V29.9462ZM99.3797 29.9462H98.7657V25.0291H99.3797V29.9462ZM104.604 29.9462H104.013L101.146 26.021V29.9462H100.532V25.0291H101.16L103.994 28.8739V25.0291H104.609V29.9462H104.604ZM107.584 29.9462H106.97V25.5723H105.416V25.0244H109.148V25.5723H107.584V29.9462ZM113.181 29.9462H109.96V25.0291H113.181V25.577H110.569V27.1641H113.13V27.712H110.569V29.4077H113.181V29.9462ZM117.73 29.9462H117.007L115.76 27.9907H114.773V29.9462H114.159V25.0291H116.138C117.041 25.0291 117.688 25.6054 117.688 26.5123C117.688 27.3955 117.074 27.882 116.403 27.9434L117.73 29.9462ZM116.063 27.4569C116.644 27.4569 117.05 27.0649 117.05 26.5123C117.05 25.9502 116.644 25.577 116.063 25.577H114.773V27.4569H116.063ZM122.723 29.9462H122.132L119.265 26.021V29.9462H118.651V25.0291H119.279L122.113 28.8739V25.0291H122.727V29.9462H122.723ZM128.089 29.9462H127.389L126.955 28.8456H124.508L124.074 29.9462H123.375L125.358 25.0291H126.119L128.089 29.9462ZM126.775 28.3119L125.727 25.6573L124.688 28.3119H126.775ZM130.063 29.9462H129.449V25.5723H127.895V25.0244H131.626V25.5723H130.063V29.9462ZM133.053 29.9462H132.439V25.0291H133.053V29.9462ZM136.444 30.0359C134.989 30.0359 134.002 28.9448 134.002 27.49C134.002 26.0352 134.989 24.9441 136.444 24.9441C137.899 24.9441 138.891 26.0352 138.891 27.49C138.891 28.9448 137.899 30.0359 136.444 30.0359ZM136.444 29.4927C137.545 29.4927 138.258 28.6378 138.258 27.4947C138.258 26.3422 137.545 25.4967 136.444 25.4967C135.339 25.4967 134.64 26.3469 134.64 27.4947C134.64 28.6331 135.339 29.4927 136.444 29.4927ZM143.912 29.9462H143.321L140.454 26.021V29.9462H139.84V25.0291H140.468L143.303 28.8739V25.0291H143.917V29.9462H143.912ZM149.278 29.9462H148.579L148.144 28.8456H145.697L145.263 29.9462H144.564L146.547 25.0291H147.308L149.278 29.9462ZM147.965 28.3119L146.916 25.6573L145.877 28.3119H147.965ZM152.735 29.9462H149.835V25.0291H150.449V29.403H152.735V29.9462Z" fill="#667085"/>
<path d="M3.67051 14.0143H0.765625V0.387318H7.1422C10.1038 0.387318 11.7192 2.39003 11.7192 4.78007C11.7192 7.15121 10.0849 9.17282 7.1422 9.17282H3.67051V14.0143ZM6.75488 6.61747C7.89794 6.61747 8.7576 5.90424 8.7576 4.78007C8.7576 3.63701 7.89794 2.94267 6.75488 2.94267H3.67051V6.62219H6.75488V6.61747ZM15.1295 14.0143H12.5363V4.14714H15.1295V5.4933C15.8238 4.61475 17.0519 3.90152 18.2752 3.90152V6.43326C18.091 6.39074 17.8454 6.37185 17.562 6.37185C16.7023 6.37185 15.5593 6.86308 15.1295 7.49602V14.0143ZM23.556 14.2599C20.3063 14.2599 18.3461 11.8888 18.3461 9.06891C18.3461 6.26794 20.3063 3.90152 23.556 3.90152C26.8246 3.90152 28.7848 6.27266 28.7848 9.06891C28.7848 11.8888 26.8246 14.2599 23.556 14.2599ZM23.556 11.9502C25.1714 11.9502 26.0877 10.6229 26.0877 9.06891C26.0877 7.53853 25.1667 6.20653 23.556 6.20653C21.9406 6.20653 21.0431 7.5338 21.0431 9.06891C21.0431 10.6229 21.9406 11.9502 23.556 11.9502ZM38.3118 14.0143H35.7187V12.994C35.0433 13.7923 33.8813 14.2599 32.5918 14.2599C31.0189 14.2599 29.1579 13.1971 29.1579 10.9913C29.1579 8.68159 31.0189 7.80304 32.5918 7.80304C33.9002 7.80304 35.0622 8.23287 35.7187 9.0075V7.68023C35.7187 6.67887 34.859 6.02704 33.5554 6.02704C32.4926 6.02704 31.5102 6.41436 30.6741 7.19372L29.6917 5.45551C30.8961 4.39275 32.4501 3.90152 34.0041 3.90152C36.2524 3.90152 38.3166 4.79896 38.3166 7.64244V14.0143H38.3118ZM33.631 12.5028C34.467 12.5028 35.2842 12.2147 35.714 11.6432V10.4151C35.2842 9.84354 34.467 9.55542 33.631 9.55542C32.6107 9.55542 31.7699 10.0844 31.7699 11.048C31.7747 11.9691 32.6107 12.5028 33.631 12.5028ZM44.5609 14.2599C41.519 14.2599 39.3321 12.1155 39.3321 9.06891C39.3321 6.04594 41.519 3.90152 44.5609 3.90152C46.5825 3.90152 47.8106 4.78007 48.4624 5.67751L46.7667 7.26929C46.2944 6.57496 45.5811 6.20653 44.6837 6.20653C43.1108 6.20653 42.0055 7.34959 42.0055 9.06891C42.0055 10.7882 43.1108 11.9502 44.6837 11.9502C45.5811 11.9502 46.2991 11.5392 46.7667 10.8874L48.4624 12.4603C47.8106 13.3814 46.5825 14.2599 44.5609 14.2599ZM52.5481 14.2599C50.7296 14.2599 49.7472 13.32 49.7472 11.5629V6.41436H48.1176V4.14714H49.7519V1.45008H52.3686V4.14714H54.3714V6.41436H52.3686V10.8685C52.3686 11.4826 52.6946 11.9502 53.2661 11.9502C53.6534 11.9502 54.0218 11.8085 54.1635 11.662L54.7162 13.6223C54.3289 13.9718 53.6345 14.2599 52.5481 14.2599ZM56.5111 3.08437C55.675 3.08437 54.9571 2.39003 54.9571 1.53038C54.9571 0.670721 55.6703 0 56.5111 0C57.3707 0 58.0651 0.675444 58.0651 1.53038C58.0651 2.39003 57.3707 3.08437 56.5111 3.08437ZM57.8194 14.0143H55.2263V4.14714H57.8194V14.0143ZM64.8242 14.0143H62.0233L58.0603 4.14714H60.8377L63.4119 11.0102L65.9862 4.14714H68.7824L64.8242 14.0143ZM73.6664 14.2599C70.6623 14.2599 68.3951 12.2383 68.3951 9.06891C68.3951 6.20653 70.5017 3.90152 73.5011 3.90152C76.4438 3.90152 78.4465 6.10734 78.4465 9.33814V9.90967H71.1111C71.2764 11.1566 72.2777 12.1958 73.9498 12.1958C74.7859 12.1958 75.9525 11.8274 76.5855 11.2133L77.7285 12.8901C76.7508 13.7876 75.1968 14.2599 73.6664 14.2599ZM75.9336 8.15257C75.8722 7.21261 75.2204 5.96564 73.5011 5.96564C71.8857 5.96564 71.1914 7.1701 71.0685 8.15257H75.9336Z" fill="#121576"/>
<path d="M92.1488 14.0142H89.0645L86.6744 4.65715L84.3033 14.0142H81.2189L77.3174 0.387207H80.5671L82.9571 10.2355L85.5503 0.387207H87.8175L90.3917 10.2355L92.7629 0.387207H96.0315L92.1488 14.0142ZM100.235 14.2598C97.2312 14.2598 94.964 12.2382 94.964 9.06879C94.964 6.20642 97.0659 3.90141 100.07 3.90141C103.013 3.90141 105.015 6.10723 105.015 9.33803V9.90956H97.6799C97.8452 11.1565 98.8466 12.1957 100.519 12.1957C101.355 12.1957 102.521 11.8273 103.154 11.2132L104.297 12.89C103.324 13.7875 101.77 14.2598 100.235 14.2598ZM102.507 8.15246C102.446 7.2125 101.794 5.96553 100.075 5.96553C98.4593 5.96553 97.7649 7.16999 97.6421 8.15246H102.507ZM108.567 14.0142H105.974V0.387207H108.567V14.0142ZM112.814 14.0142H110.221V0.387207H112.814V14.0142ZM123.725 14.0142H121.132V8.04854C121.132 6.67876 120.418 6.21115 119.313 6.21115C118.293 6.21115 117.495 6.78268 117.065 7.37782V14.0142H114.472V4.14702H117.065V5.43179C117.698 4.67604 118.902 3.90141 120.518 3.90141C122.681 3.90141 123.725 5.12949 123.725 7.04719V14.0142ZM130.016 14.2598C127.012 14.2598 124.745 12.2382 124.745 9.06879C124.745 6.20642 126.847 3.90141 129.851 3.90141C132.794 3.90141 134.796 6.10723 134.796 9.33803V9.90956H127.461C127.626 11.1565 128.628 12.1957 130.3 12.1957C131.136 12.1957 132.302 11.8273 132.935 11.2132L134.078 12.89C133.105 13.7875 131.551 14.2598 130.016 14.2598ZM132.288 8.15246C132.227 7.2125 131.575 5.96553 129.856 5.96553C128.24 5.96553 127.546 7.16999 127.423 8.15246H132.288ZM139.307 14.2598C137.593 14.2598 135.935 13.6883 134.895 12.7294L136.02 10.9109C136.733 11.5864 138.207 12.2571 139.43 12.2571C140.554 12.2571 141.083 11.8084 141.083 11.1943C141.083 9.56003 135.221 10.8873 135.221 7.00467C135.221 5.35149 136.671 3.90141 139.265 3.90141C140.941 3.90141 142.269 4.47294 143.251 5.24757L142.207 7.02357C141.617 6.39063 140.493 5.88051 139.284 5.88051C138.344 5.88051 137.73 6.31034 137.73 6.86297C137.73 8.33195 143.572 7.10859 143.572 11.0904C143.577 12.89 142.047 14.2598 139.307 14.2598ZM148.126 14.2598C146.411 14.2598 144.753 13.6883 143.714 12.7294L144.838 10.9109C145.551 11.5864 147.025 12.2571 148.249 12.2571C149.373 12.2571 149.902 11.8084 149.902 11.1943C149.902 9.56003 144.04 10.8873 144.04 7.00467C144.04 5.35149 145.49 3.90141 148.083 3.90141C149.76 3.90141 151.087 4.47294 152.065 5.24757L151.021 7.02357C150.426 6.39063 149.307 5.88051 148.097 5.88051C147.157 5.88051 146.543 6.31034 146.543 6.86297C146.543 8.33195 152.386 7.10859 152.386 11.0904C152.396 12.89 150.865 14.2598 148.126 14.2598Z" fill="#F36076"/>
<path d="M80.7085 21.3592C80.666 21.3592 80.6188 21.3497 80.581 21.3356C80.4724 21.2931 80.3873 21.1986 80.3637 21.0852L79.2018 16.017L74.3509 18.903C74.2942 18.9361 74.2328 18.955 74.1666 18.955H0.354254C0.155872 18.955 0 18.7944 0 18.6007C0 18.4071 0.160595 18.2465 0.354254 18.2465H74.0675L79.2537 15.1621C79.3529 15.1054 79.471 15.096 79.5749 15.1385C79.6788 15.181 79.7544 15.2755 79.7828 15.3841L80.94 20.4192L84.0196 18.3031C84.081 18.2606 84.1472 18.2417 84.2227 18.2417H152.646C152.844 18.2417 153 18.4023 153 18.596C153 18.7897 152.839 18.9503 152.646 18.9503H84.3361L80.9116 21.2978C80.8502 21.3356 80.7841 21.3592 80.7085 21.3592Z" fill="#121576"/>
</svg>
